<?xml version="1.0" encoding="UTF-8" standalone="no"?>
<svg width="160px" height="437px" viewBox="0 0 160 437" version="1.1" xmlns="http://www.w3.org/2000/svg" xmlns:xlink="http://www.w3.org/1999/xlink">
    <g stroke="none" stroke-width="1" fill="none" fill-rule="evenodd">
        <path d="M115.000006,284.448582 C141.642355,297.43152 160,324.775056 160,356.40625 C160,400.58903 124.18278,436.40625 80,436.40625 C35.81722,436.40625 0,400.58903 0,356.40625 C0,324.380825 18.8180925,296.750601 45.9999959,283.96986 L46,24.40625 C46,24.40625 46,1.8639507e-14 80.5,0 C115,-1.86395072e-14 115,24.40625 115,24.40625 L115,284.448579 Z" fill="#D8D8D8"></path>
        <path d="M108.000002,290.752992 C133.272522,301.691754 151,327.250797 151,357.036279 C151,396.780745 119.436075,429 80.5,429 C41.5639251,429 10,396.780745 10,357.036279 C10,326.920505 28.1228192,301.125423 53.8435117,290.394499 L53.8435128,30.8469947 C53.8435128,30.8469947 53.8435128,7 80.9217564,7 C108,7 108,30.8469947 108,30.8469947 L108,290.752982 Z" fill="#FFFFFF"></path>
        <path d="M101,300.782786 C122.614737,309.276659 138,331.13931 138,356.77001 C138,389.780075 112.480231,416.540019 81,416.540019 C49.5197693,416.540019 24,389.780075 24,356.77001 C24,330.570584 40.0756131,308.308282 62.4479465,300.237219 L62.4479465,41.4514285 C62.4479465,41.4514285 57.6706041,18 81.7239733,18 C105.777342,18 101,41.4514285 101,41.4514285 L101,300.782782 Z" fill="#F41414"></path>
    </g>
</svg>